<?xml version="1.0" standalone="no"?>
<!DOCTYPE svg PUBLIC "-//W3C//DTD SVG 20010904//EN"
 "http://www.w3.org/TR/2001/REC-SVG-20010904/DTD/svg10.dtd">
<svg version="1.0" xmlns="http://www.w3.org/2000/svg"
 width="757.000000pt" height="1280.000000pt" viewBox="0 0 757.000000 1280.000000"
 preserveAspectRatio="xMidYMid meet">
<g transform="translate(0.000000,1280.000000) scale(0.100000,-0.100000)"
fill="#000000" stroke="none">
<path d="M4096 12780 c-372 -69 -652 -280 -802 -606 -87 -187 -116 -442 -74
-644 128 -621 764 -987 1364 -786 459 154 758 614 708 1090 -16 148 -42 239
-107 371 -104 210 -264 370 -480 477 -91 46 -147 64 -291 93 -137 29 -182 29
-318 5z"/>
<path d="M3757 10445 c-209 -35 -376 -118 -601 -299 -856 -688 -2047 -1660
-2068 -1688 -73 -95 -76 -107 -321 -1208 -130 -580 -239 -1078 -242 -1106 -10
-74 11 -184 51 -263 66 -133 200 -229 350 -251 212 -32 432 111 510 332 7 21
101 440 209 931 108 490 198 899 201 908 4 16 713 595 741 606 8 3 13 -2 13
-16 0 -11 -254 -1145 -564 -2520 l-565 -2501 -687 -1152 c-411 -689 -699
-1183 -717 -1227 -64 -166 -76 -266 -47 -398 44 -199 152 -363 308 -464 90
-59 151 -83 288 -110 103 -20 108 -20 192 -4 116 23 184 48 266 97 75 44 185
148 233 218 88 131 1513 2549 1563 2653 l60 122 177 823 c153 708 180 822 195
820 17 -3 1517 -1636 1530 -1666 4 -10 114 -575 243 -1257 130 -682 241 -1258
246 -1280 50 -188 207 -379 382 -465 69 -34 241 -80 300 -80 59 0 243 47 312
80 188 90 338 279 380 478 32 154 26 201 -115 949 -72 378 -187 985 -256 1348
-68 363 -129 676 -135 695 -39 126 -38 125 -1006 1269 -519 613 -943 1122
-943 1132 0 22 467 2077 475 2090 4 5 10 9 15 9 6 0 102 -184 215 -409 166
-333 213 -419 252 -460 59 -62 1607 -1131 1700 -1172 178 -81 371 -51 514 79
66 60 110 138 138 244 26 97 26 114 0 202 -29 95 -59 153 -111 210 -27 30
-311 231 -782 556 l-740 509 -538 1066 c-361 715 -554 1087 -585 1128 -261
341 -651 507 -1036 442z"/>
</g>
</svg>
